{
  "accessors": [
    {
      "bufferView": 2,
      "componentType": 5126,
      "count": 65532,
      "max": [
        6.805419921875,
        6.592432975769043,
        6.768400192260742
      ],
      "min": [
        0.0021669864654541016,
        0.0,
        0.0
      ],
      "type": "VEC3"
    },
    {
      "bufferView": 2,
      "byteOffset": 786384,
      "componentType": 5126,
      "count": 65532,
      "max": [
        0.9999856352806091,
        0.9999927282333374,
        0.9999939203262329
      ],
      "min": [
        -0.9997051954269409,
        -0.9999788999557495,
        -0.999975860118866
      ],
      "type": "VEC3"
    },
    {
      "bufferView": 1,
      "componentType": 5126,
      "count": 65532,
      "max": [
        0.9879260063171387,
        0.9981679916381836
      ],
      "min": [
        0.01233300007879734,
        0.004327999893575907
      ],
      "type": "VEC2"
    },
    {
      "bufferView": 0,
      "componentType": 5125,
      "count": 361704,
      "type": "SCALAR"
    },
    {
      "bufferView": 2,
      "byteOffset": 1572768,
      "componentType": 5126,
      "count": 9873,
      "max": [
        4.401035785675049,
        5.805345058441162,
        6.768400192260742
      ],
      "min": [
        0.0,
        0.0008459091186523438,
        0.511152982711792
      ],
      "type": "VEC3"
    },
    {
      "bufferView": 2,
      "byteOffset": 1691244,
      "componentType": 5126,
      "count": 9873,
      "max": [
        0.9953364133834839,
        0.9898461103439331,
        0.9998811483383179
      ],
      "min": [
        -0.9999074339866638,
        -0.9999776482582092,
        -0.9994719624519348
      ],
      "type": "VEC3"
    },
    {
      "bufferView": 1,
      "byteOffset": 524256,
      "componentType": 5126,
      "count": 9873,
      "max": [
        0.9951620101928711,
        0.9984380006790161
      ],
      "min": [
        0.005104999989271164,
        0.003961999900639057
      ],
      "type": "VEC2"
    },
    {
      "bufferView": 0,
      "byteOffset": 1446816,
      "componentType": 5125,
      "count": 35538,
      "type": "SCALAR"
    }
  ],
  "asset": {
    "extras": {
      "author": "linfredriksson (https://sketchfab.com/linfredriksson)",
      "license": "CC-BY-4.0 (http://creativecommons.org/licenses/by/4.0/)",
      "source": "https://sketchfab.com/3d-models/apple-50ffb91434ea4d978eaefe03220d36fe",
      "title": "Apple"
    },
    "generator": "Sketchfab-12.68.0",
    "version": "2.0"
  },
  "bufferViews": [
    {
      "buffer": 0,
      "byteLength": 1588968,
      "name": "floatBufferViews",
      "target": 34963
    },
    {
      "buffer": 0,
      "byteLength": 603240,
      "byteOffset": 1588968,
      "byteStride": 8,
      "name": "floatBufferViews",
      "target": 34962
    },
    {
      "buffer": 0,
      "byteLength": 1809720,
      "byteOffset": 2192208,
      "byteStride": 12,
      "name": "floatBufferViews",
      "target": 34962
    }
  ],
  "buffers": [
    {
      "byteLength": 4001928,
      "uri": "scene.bin"
    }
  ],
  "images": [
    {
      "uri": "textures/apple_baseColor.jpeg"
    }
  ],
  "materials": [
    {
      "doubleSided": true,
      "name": "apple",
      "pbrMetallicRoughness": {
        "baseColorTexture": {
          "index": 0
        },
        "metallicFactor": 0.0,
        "roughnessFactor": 0.5700000000000001
      }
    }
  ],
  "meshes": [
    {
      "name": "Object_0",
      "primitives": [
        {
          "attributes": {
            "NORMAL": 1,
            "POSITION": 0,
            "TEXCOORD_0": 2
          },
          "indices": 3,
          "material": 0,
          "mode": 4
        }
      ]
    },
    {
      "name": "Object_1",
      "primitives": [
        {
          "attributes": {
            "NORMAL": 5,
            "POSITION": 4,
            "TEXCOORD_0": 6
          },
          "indices": 7,
          "material": 0,
          "mode": 4
        }
      ]
    }
  ],
  "nodes": [
    {
      "children": [
        1
      ],
      "matrix": [
        1.0,
        0.0,
        0.0,
        0.0,
        0.0,
        2.220446049250313e-16,
        -1.0,
        0.0,
        0.0,
        1.0,
        2.220446049250313e-16,
        0.0,
        0.0,
        0.0,
        0.0,
        1.0
      ],
      "name": "Sketchfab_model"
    },
    {
      "children": [
        2
      ],
      "matrix": [
        1.0,
        0.0,
        0.0,
        0.0,
        0.0,
        1.0,
        0.0,
        0.0,
        0.0,
        0.0,
        1.0,
        0.0,
        -3.254879951477051,
        -3.3418519496917725,
        -3.5183489322662354,
        1.0
      ],
      "name": "apple.obj.cleaner.gles"
    },
    {
      "children": [
        3,
        4
      ],
      "name": "Object_2"
    },
    {
      "mesh": 0,
      "name": "Object_3"
    },
    {
      "mesh": 1,
      "name": "Object_4"
    }
  ],
  "samplers": [
    {
      "magFilter": 9729,
      "minFilter": 9987,
      "wrapS": 10497,
      "wrapT": 10497
    }
  ],
  "scene": 0,
  "scenes": [
    {
      "name": "Sketchfab_Scene",
      "nodes": [
        0
      ]
    }
  ],
  "textures": [
    {
      "sampler": 0,
      "source": 0
    }
  ]
}
