{
  "accessors": [
    {
      "bufferView": 2,
      "componentType": 5126,
      "count": 42463,
      "max": [
        0.3941589891910553,
        1.1929490566253662,
        2.1325550079345703
      ],
      "min": [
        -0.25747400522232056,
        -1.284005045890808,
        0.0045460001565515995
      ],
      "type": "VEC3"
    },
    {
      "bufferView": 2,
      "byteOffset": 509556,
      "componentType": 5126,
      "count": 42463,
      "max": [
        0.9999957084655762,
        0.9998637437820435,
        0.9999942779541016
      ],
      "min": [
        -0.9999994039535522,
        -0.9999516010284424,
        -0.9999942779541016
      ],
      "type": "VEC3"
    },
    {
      "bufferView": 3,
      "componentType": 5126,
      "count": 42463,
      "max": [
        0.9999241232872009,
        0.9999255537986755,
        0.9999836683273315,
        1.0
      ],
      "min": [
        -0.9999145269393921,
        -0.9999826550483704,
        -0.999866247177124,
        -1.0
      ],
      "type": "VEC4"
    },
    {
      "bufferView": 1,
      "componentType": 5126,
      "count": 42463,
      "max": [
        0.9999970197677612,
        0.9842420220375061
      ],
      "min": [
        1.4999999621068127e-05,
        3.000000106112566e-06
      ],
      "type": "VEC2"
    },
    {
      "bufferView": 0,
      "componentType": 5125,
      "count": 242004,
      "type": "SCALAR"
    }
  ],
  "asset": {
    "extras": {
      "author": "Lassi Kaukonen (https://sketchfab.com/thesidekick)",
      "license": "CC-BY-4.0 (http://creativecommons.org/licenses/by/4.0/)",
      "source": "https://sketchfab.com/3d-models/miniature-cat-7aabffe566ef462db6d1cd6a6dd46345",
      "title": "Miniature cat"
    },
    "generator": "Sketchfab-12.68.0",
    "version": "2.0"
  },
  "bufferViews": [
    {
      "buffer": 0,
      "byteLength": 968016,
      "name": "floatBufferViews",
      "target": 34963
    },
    {
      "buffer": 0,
      "byteLength": 339704,
      "byteOffset": 968016,
      "byteStride": 8,
      "name": "floatBufferViews",
      "target": 34962
    },
    {
      "buffer": 0,
      "byteLength": 1019112,
      "byteOffset": 1307720,
      "byteStride": 12,
      "name": "floatBufferViews",
      "target": 34962
    },
    {
      "buffer": 0,
      "byteLength": 679408,
      "byteOffset": 2326832,
      "byteStride": 16,
      "name": "floatBufferViews",
      "target": 34962
    }
  ],
  "buffers": [
    {
      "byteLength": 3006240,
      "uri": "scene.bin"
    }
  ],
  "images": [
    {
      "uri": "textures/Miniature_cat_baseColor.jpeg"
    },
    {
      "uri": "textures/Miniature_cat_metallicRoughness.png"
    },
    {
      "uri": "textures/Miniature_cat_normal.png"
    }
  ],
  "materials": [
    {
      "doubleSided": true,
      "name": "Miniature_cat",
      "normalTexture": {
        "index": 2,
        "scale": 0.4881476459464554
      },
      "occlusionTexture": {
        "index": 1
      },
      "pbrMetallicRoughness": {
        "baseColorTexture": {
          "index": 0
        },
        "metallicFactor": 0.0,
        "metallicRoughnessTexture": {
          "index": 1
        }
      }
    }
  ],
  "meshes": [
    {
      "name": "Object_0",
      "primitives": [
        {
          "attributes": {
            "NORMAL": 1,
            "POSITION": 0,
            "TANGENT": 2,
            "TEXCOORD_0": 3
          },
          "indices": 4,
          "material": 0,
          "mode": 4
        }
      ]
    }
  ],
  "nodes": [
    {
      "children": [
        1
      ],
      "matrix": [
        1.0,
        0.0,
        0.0,
        0.0,
        0.0,
        2.220446049250313e-16,
        -1.0,
        0.0,
        0.0,
        1.0,
        2.220446049250313e-16,
        0.0,
        0.0,
        0.0,
        0.0,
        1.0
      ],
      "name": "Sketchfab_model"
    },
    {
      "children": [
        2
      ],
      "name": "Miniature_cat_SF.obj.cleaner.materialmerger.gles"
    },
    {
      "mesh": 0,
      "name": "Object_2"
    }
  ],
  "samplers": [
    {
      "magFilter": 9729,
      "minFilter": 9987,
      "wrapS": 10497,
      "wrapT": 10497
    }
  ],
  "scene": 0,
  "scenes": [
    {
      "name": "Sketchfab_Scene",
      "nodes": [
        0
      ]
    }
  ],
  "textures": [
    {
      "sampler": 0,
      "source": 0
    },
    {
      "sampler": 0,
      "source": 1
    },
    {
      "sampler": 0,
      "source": 2
    }
  ]
}
